<?xml version="1.0" encoding="utf-8"?>
<svg width="297px" height="311px" viewBox="0 0 297 311" version="1.1" xmlns:xlink="http://www.w3.org/1999/xlink" xmlns="http://www.w3.org/2000/svg">
	<defs>
		<path d="M0 0L297 0L297 310L0 310L0 0Z" id="path_1" />
		<clipPath id="mask_1">
			<use xlink:href="#path_1" />
		</clipPath>
	</defs>
	<g id="4I_H___0AN_KRQZW9A2I__Y">
		<path d="M0 0L297 0L297 310L0 310L0 0Z" id="Background" fill="none" fill-rule="evenodd" stroke="none" />
		<g clip-path="url(#mask_1)">
			<g id="Group" transform="translate(26.844711 33.26776)">
				<path d="M111.455 0.332243C110.055 0.532225 105.555 1.23224 101.455 1.83224C90.6553 3.43222 76.3553 8.13223 65.4553 13.9322C6.75529 44.3322 -16.6447 115.632 12.5553 175.032C26.7553 203.832 52.1553 226.032 82.6553 236.232C151.655 259.232 223.955 218.532 240.655 147.432C243.555 134.932 243.755 110.232 241.155 97.7322C235.855 73.0322 225.055 53.1322 207.455 35.7322C189.855 18.1322 170.155 7.63223 146.255 2.63223C136.555 0.732237 116.955 -0.667757 111.455 0.332243L111.455 0.332243ZM88.2553 74.3322C91.5553 76.5322 94.4553 81.7322 94.4553 85.5322C94.4553 90.3322 91.0553 99.2322 87.3553 103.932C83.5553 108.732 77.1553 113.032 70.5553 115.232L65.9553 116.732L63.5553 125.032C61.6553 131.532 57.2553 142.232 54.7553 146.832C53.6553 148.732 85.7553 155.832 106.455 158.332C122.555 160.232 160.655 160.532 176.955 158.832C187.355 157.732 216.055 153.332 221.155 152.132C223.155 151.632 223.455 151.932 223.455 154.032C223.455 156.932 221.555 157.632 201.955 162.132C176.055 168.032 164.155 169.232 133.455 169.232C110.955 169.132 102.855 168.832 94.9553 167.432C80.6553 164.932 65.1553 160.932 56.6553 157.632L49.3553 154.732L46.3553 156.832C39.3553 161.732 25.8553 163.332 19.4553 159.932C15.0553 157.532 11.8553 152.132 12.8553 148.432C13.8553 144.132 18.8553 141.732 26.4553 141.732C30.0553 141.732 34.4553 142.132 36.2553 142.732C39.5553 143.632 39.6553 143.632 42.0553 138.332C43.3553 135.432 45.3553 129.732 46.3553 125.632L48.2553 118.232L43.1553 116.732C38.0553 115.132 36.6553 113.532 38.2553 110.932C38.9553 109.932 39.7553 109.932 41.8553 110.732C43.3553 111.232 45.9553 111.732 47.5553 111.732C49.9553 111.732 50.4553 111.332 50.4553 109.232C50.4553 105.032 55.0553 91.9322 58.4553 86.7322C66.4553 74.2322 79.6553 68.8322 88.2553 74.3322L88.2553 74.3322ZM134.155 96.8322C141.455 99.6322 139.255 107.732 131.155 107.732C122.555 107.732 120.555 99.3322 128.455 96.4322C130.655 95.6322 131.055 95.6322 134.155 96.8322L134.155 96.8322ZM101.955 113.832C109.755 115.832 112.855 121.332 109.255 126.732C105.955 131.532 101.355 133.932 93.9553 134.532C87.0553 135.032 85.9553 136.132 89.1553 139.232C91.9553 142.132 104.155 140.832 110.155 137.132C114.855 134.232 114.955 134.032 117.855 123.932L120.755 113.732L128.055 113.732C133.755 113.732 135.455 114.032 135.455 115.132C135.455 115.932 134.355 120.932 132.955 126.232C129.455 139.532 130.755 142.332 138.055 137.832C140.355 136.432 141.355 134.932 141.955 132.132C143.855 121.832 150.755 115.032 161.055 113.232C166.755 112.332 173.455 114.232 173.455 116.732C173.455 120.932 172.555 121.632 169.255 120.032C166.455 118.632 166.055 118.632 163.655 120.432C158.055 124.532 155.555 134.932 159.155 138.932C163.355 143.632 172.455 139.132 174.555 131.432C176.055 125.832 177.755 122.732 181.155 119.332C187.055 113.332 196.455 111.132 202.455 114.232C204.255 115.132 205.555 115.332 205.955 114.732C206.955 113.132 220.755 113.432 220.155 115.032C218.655 118.932 215.255 136.732 215.755 138.032C216.255 139.332 216.955 139.432 219.655 138.632C221.455 138.132 222.955 137.732 223.055 137.732C223.155 137.732 223.455 138.632 223.755 139.632C224.655 143.332 216.755 147.732 209.155 147.732C205.755 147.732 204.155 147.132 202.255 145.232C200.055 143.032 199.555 142.932 198.455 144.132C197.855 144.932 195.355 146.332 192.955 147.332C187.655 149.332 183.155 148.132 177.955 143.532L174.555 140.632L170.455 143.632C162.055 149.732 151.755 149.832 146.055 143.832L143.255 140.832L139.555 143.232C134.955 146.332 128.155 148.732 124.155 148.732C121.955 148.732 120.155 147.732 117.555 144.932L113.955 141.232L109.855 143.432C102.655 147.432 93.9553 149.132 86.6553 147.932C79.2553 146.632 76.1553 144.932 73.4553 140.432C71.1553 136.732 70.9553 133.532 72.5553 128.632C75.0553 121.232 79.8553 117.032 88.9553 114.132C94.0553 112.532 96.5553 112.432 101.955 113.832L101.955 113.832Z" id="Shape" fill="#E12429" fill-rule="evenodd" stroke="none" />
				<path d="M79.1553 79.8322C75.3553 82.0322 70.2553 93.3322 67.5553 105.432C66.5553 110.432 67.3553 110.832 73.2553 107.832C81.0553 103.732 87.3553 94.1322 87.4553 86.1322C87.4553 80.1322 83.6553 77.2322 79.1553 79.8322L79.1553 79.8322Z" id="Shape" fill="#E12429" stroke="none" />
				<path d="M22.6553 147.832C19.3553 149.132 20.0553 152.832 23.7553 154.132C25.7553 154.832 27.6553 154.732 30.7553 153.732C36.6553 151.632 36.7553 149.332 31.0553 147.832C25.8553 146.532 25.7553 146.532 22.6553 147.832L22.6553 147.832Z" id="Shape" fill="#E12429" stroke="none" />
				<path d="M93.5553 119.332C91.3553 120.932 88.4553 126.332 88.4553 128.832C88.4553 130.332 94.9553 129.332 97.1553 127.532C99.5553 125.632 100.555 121.832 99.4553 119.632C98.1553 117.332 96.6553 117.232 93.5553 119.332L93.5553 119.332Z" id="Shape" fill="#E12429" stroke="none" />
				<path d="M194.055 121.932C191.655 125.232 189.155 134.432 189.855 137.232C190.655 140.232 192.955 141.032 196.255 139.532C199.555 137.932 202.555 130.132 202.155 124.232C201.955 120.532 201.755 120.232 198.755 119.932C196.455 119.732 195.255 120.232 194.055 121.932L194.055 121.932Z" id="Shape" fill="#E12429" stroke="none" />
			</g>
		</g>
	</g>
</svg>