<?xml version="1.0" encoding="utf-8"?>
<!-- Generator: Adobe Illustrator 23.1.0, SVG Export Plug-In . SVG Version: 6.00 Build 0)  -->
<svg version="1.1"
	 id="svg25166" inkscape:version="0.91 r13725" sodipodi:docname="Fujifilm_logo.svg" xmlns:cc="http://creativecommons.org/ns#" xmlns:dc="http://purl.org/dc/elements/1.1/" xmlns:inkscape="http://www.inkscape.org/namespaces/inkscape" xmlns:rdf="http://www.w3.org/1999/02/22-rdf-syntax-ns#" xmlns:sodipodi="http://sodipodi.sourceforge.net/DTD/sodipodi-0.dtd" xmlns:svg="http://www.w3.org/2000/svg"
	 xmlns="http://www.w3.org/2000/svg" xmlns:xlink="http://www.w3.org/1999/xlink" x="0px" y="0px" viewBox="0 0 1028.9 171.2"
	 style="enable-background:new 0 0 1028.9 171.2;" xml:space="preserve">
<style type="text/css">
	.st0{fill:#EE193D;}
</style>
<sodipodi:namedview  bordercolor="#666666" borderopacity="1" gridtolerance="10" guidetolerance="10" id="namedview4952" inkscape:current-layer="svg25166" inkscape:cx="409.70319" inkscape:cy="-19.745299" inkscape:pageopacity="0" inkscape:pageshadow="2" inkscape:window-height="705" inkscape:window-maximized="1" inkscape:window-width="1366" inkscape:window-x="-8" inkscape:window-y="-8" inkscape:zoom="0.5" objecttolerance="10" pagecolor="#ffffff" showgrid="false">
	</sodipodi:namedview>
<g id="g5512" transform="matrix(2.0661355,0,0,2.0661355,0,-4.1323115)">
	<g id="g24728" transform="matrix(4.3916816,0,0,-4.3916816,379.3486,2.01011)">
		<path id="path24730" inkscape:connector-curvature="0" d="M0,0v-14.8c0-1,0.5-1.5,1.4-1.5h4.9V-18c0-0.2-0.1-0.3-0.3-0.3h-7.9
			c-2.4,0-2.8,1.3-2.8,2.6V-1c0,0.7,0.3,1,1.1,1H0"/>
	</g>
	<g id="g24732" transform="matrix(4.3916816,0,0,-4.3916816,339.47168,2.01011)">
		<path id="path24734" inkscape:connector-curvature="0" d="M0,0v-17.3c0-0.8-0.3-1-1-1h-3.7V-1c0,0.6,0.2,1,1,1H0"/>
	</g>
	<g id="g24736" transform="matrix(4.3916816,0,0,-4.3916816,0,13.05386)">
		<path id="path24738" inkscape:connector-curvature="0" d="M0,0c0,1.4,0,2.5,2.3,2.5h10V0.8c0-0.1-0.1-0.2-0.2-0.2h-6
			c-0.8,0-1.2-0.4-1.2-1.2v-4.6H12V-7c0-0.2-0.1-0.2-0.3-0.2H4.9v-7.4c0-0.7-0.4-1-1.1-1H0V0"/>
	</g>
	<g id="g24740" transform="matrix(4.3916816,0,0,-4.3916816,86.0146,2.00221)">
		<path id="path24742" inkscape:connector-curvature="0" d="M0,0v-13.9c0-1.2,0.2-2,1-2.5c1.1-0.6,3-0.7,4.2,0
			C6-16,6.3-15.3,6.3-13.9v13c0,0.6,0.2,0.9,1,0.9h3.6v-13.5c0-3.1-2-4.4-3.7-4.9c-2.3-0.6-5.8-0.6-8,0c-2.6,0.8-3.8,2.3-3.8,4.9
			v12.6C-4.7-0.3-4.5,0-3.8,0H0"/>
	</g>
	<g id="g24744" transform="matrix(4.3916816,0,0,-4.3916816,474.26296,2.01451)">
		<path id="path24746" inkscape:connector-curvature="0" d="M0,0c-0.9,0-1.4-0.4-1.7-1.3l-3-12.6h-0.1L-7.8,0H-12
			c-0.8,0-1.1-0.4-1.1-1.1v-17.2h1.8c0.3,0,0.4,0.1,0.4,0.4v14.4h0.3l3.8-14.8h2.5c0.9,0,1.3,0.4,1.5,1.3L0.6-3.4h0.3v-14.8h3.3
			c0.8,0,1.2,0.3,1.2,1.1V0H0"/>
	</g>
	<g id="g24748" transform="matrix(4.3916816,0,0,-4.3916816,231.57952,45.55406)">
		<path id="path24750" inkscape:connector-curvature="0" d="M0,0h-4.7v-8.3H-1c0.7,0,1,0.2,1,1C0-7.4,0-3.8,0,0"/>
	</g>
	<g id="g24752" transform="matrix(4.3916816,0,0,-4.3916816,230.38322,29.92143)">
		<g>
			<path id="path24754_8_" inkscape:connector-curvature="0" class="st0" d="M0,0c0.2,0.1,0.3,0.2,0.3,0.5v5.8h-3.6
				c-0.8,0-1-0.4-1-1v-8.8L0,0"/>
		</g>
	</g>
	<g id="g24756" transform="matrix(4.3916816,0,0,-4.3916816,160.01264,75.79827)">
		<path id="path24758" inkscape:connector-curvature="0" d="M0,0c2,0.3,2.7,1.5,2.7,3.3v12.5c0,0.8,0.4,1,0.9,1h3.7V4.9
			C7.4,2,6.8,0.6,5-0.7C4.1-1.3,2.6-2.1-0.8-2.1c-2,0-2.8,0.1-2.9,0.1C-3.9-1.9-4-1.8-4-1.6v1.5C-3.2-0.1-1.4-0.2,0,0"/>
	</g>
	<g id="g24760" transform="matrix(4.3916816,0,0,-4.3916816,262.67744,2.00221)">
		<path id="path24762" inkscape:connector-curvature="0" d="M0,0c-2.3,0-2.3-1.1-2.3-2.5v-4.7c0-0.1,0-0.1-0.1-0.2l-3.2-2.5h3.3
			v-8.3h3.7c0.8,0,1.1,0.3,1.1,1v7.4h6.8c0.2,0,0.3,0.1,0.3,0.2v1.8h-7v4.6C2.6-2.4,3-2,3.8-2h6C10-2,10-1.9,10-1.8V0H0"/>
	</g>
</g>
</svg>
