<?xml version="1.0" encoding="UTF-8" standalone="no"?>
<!-- Created with Inkscape (http://www.inkscape.org/) -->

<svg
   width="738.15839mm"
   height="139.46684mm"
   viewBox="0 0 738.15838 139.46684"
   version="1.1"
   id="svg5"
   xml:space="preserve"
   xmlns="http://www.w3.org/2000/svg"
   xmlns:svg="http://www.w3.org/2000/svg"><defs
     id="defs2">
  
  
 
   
   
   
   
  
    
    
    
    
    
    
    
    
    
   </defs><g
     id="layer1"
     transform="translate(90.709598,-165.67855)"><polygon
       id="_137713304"
       fill="#f6d900"
       fill-rule="nonzero"
       points="234.392,44.8797 234.392,43.5034 117.527,40.4892 0.664582,43.5034 0.664582,44.8797 117.527,47.8897 "
       transform="matrix(3.158202,0,0,3.158202,-92.808482,153.90004)"
       style="clip-rule:evenodd;fill:#ffd600;fill-opacity:1;image-rendering:optimizeQuality;shape-rendering:geometricPrecision;text-rendering:geometricPrecision" /><g
       id="g11669"
       style="fill:#253e91;fill-opacity:1"><polygon
         id="_137792048"
         fill="#343e8b"
         fill-rule="nonzero"
         points="66.3031,31.5312 41.1139,31.5312 41.1139,4.75433 52.2726,4.75433 52.2726,25.5023 66.3031,25.5023 "
         transform="matrix(3.158202,0,0,3.158202,-92.808482,153.90004)"
         style="clip-rule:evenodd;fill:#253e91;fill-opacity:1;image-rendering:optimizeQuality;shape-rendering:geometricPrecision;text-rendering:geometricPrecision" /><path
         id="_137791288"
         fill="#343e8b"
         fill-rule="nonzero"
         d="m 483.65181,256.87448 c -27.46097,0 -50.56186,-8.17273 -50.56186,-30.68256 v -57.27684 h 34.10574 v 54.66374 c 0,10.57941 7.81809,15.41155 16.45619,15.41155 8.64728,0 16.45619,-4.83217 16.45619,-15.41155 v -54.66374 h 34.10131 v 57.27684 c 0,22.50983 -23.08588,30.68256 -50.55744,30.68256 z"
         style="clip-rule:evenodd;fill:#253e91;fill-opacity:1;stroke-width:3.1582;image-rendering:optimizeQuality;shape-rendering:geometricPrecision;text-rendering:geometricPrecision" /><path
         id="_137791360"
         fill="#343e8b"
         fill-rule="nonzero"
         d="m 605.66895,191.40021 h 36.04708 c -1.88848,-19.42237 -29.2314,-25.22288 -50.4188,-25.22288 -21.17672,0 -48.7639,6.92692 -48.7639,28.11466 0,15.48185 15.14374,20.43344 25.77046,22.58563 7.54017,1.52053 20.10868,3.66304 26.39704,5.0476 8.74787,1.91329 13.27408,3.692 13.27408,8.84849 0,5.51248 -5.08575,8.33212 -15.52686,8.33212 -9.89859,0 -15.81353,-3.0778 -17.45762,-10.05754 l -36.7321,0.005 c 2.15676,23.0381 31.67487,28.07515 54.97103,28.07515 23.44052,0 51.45311,-5.57912 51.45311,-28.41096 0,-12.39623 -7.98577,-20.64523 -27.6392,-24.57609 -10.28585,-2.05616 -24.54759,-4.73569 -30.03023,-5.67971 -7.26273,-1.2665 -9.85542,-3.88355 -9.85542,-7.45427 0,-3.68098 3.52755,-7.5457 13.71278,-7.5457 8.60913,0 13.26445,2.51277 14.79829,7.93798 z"
         style="clip-rule:evenodd;fill:#253e91;fill-opacity:1;stroke-width:3.1582;image-rendering:optimizeQuality;shape-rendering:geometricPrecision;text-rendering:geometricPrecision" /><path
         id="_137708120"
         fill="#343e8b"
         fill-rule="nonzero"
         d="m 394.82738,222.34775 c 25.37679,0 31.83373,-16.1392 31.83373,-26.45127 0,-9.49115 -5.45968,-26.98137 -31.79962,-26.98137 h -68.22032 l 0.003,84.56686 h 33.48704 v -31.13412 h 34.69506 z M 360.1279,203.88364 v -16.49431 h 22.35641 c 5.57084,0 10.33455,2.6019 10.33455,7.97613 0,4.73525 -2.73649,8.51818 -10.37681,8.51818 h -22.31412 z"
         style="clip-rule:evenodd;fill:#253e91;fill-opacity:1;stroke-width:3.1582;image-rendering:optimizeQuality;shape-rendering:geometricPrecision;text-rendering:geometricPrecision" /><path
         id="_137709352"
         fill="#343e8b"
         fill-rule="nonzero"
         d="m 158.98265,170.97502 0.95963,-2.05984 h 35.3567 l -36.79052,56.09346 v 28.47343 H 125.05963 V 225.00864 L 88.390057,168.91518 H 123.6217 l 0.9826,2.05984 15.9426,27.99935 c 1.05013,1.79754 1.36664,1.79754 2.52702,0 l 15.90862,-27.99935 z"
         style="clip-rule:evenodd;fill:#253e91;fill-opacity:1;stroke-width:3.1582;image-rendering:optimizeQuality;shape-rendering:geometricPrecision;text-rendering:geometricPrecision" /><path
         id="_137710928"
         fill="#343e8b"
         fill-rule="nonzero"
         d="m 265.91589,253.48194 0.62337,-1.68361 17.96616,-41.78017 c 0.46444,-1.0979 1.54764,-0.80437 1.56233,0.15939 v 43.30432 h 28.84689 v -84.56685 h -34.86339 l -0.64128,1.82096 -21.4891,48.50999 c -0.79242,1.84071 -1.53018,1.83152 -2.32121,0 l -21.47944,-48.50999 -0.64269,-1.82096 h -34.8678 v 84.56686 h 28.86203 v -43.30432 c 0.006,-0.96377 1.08829,-1.2573 1.55867,-0.15939 l 17.94686,41.78017 0.63717,1.68361 h 18.3015 z"
         style="clip-rule:evenodd;fill:#253e91;fill-opacity:1;stroke-width:3.1582;image-rendering:optimizeQuality;shape-rendering:geometricPrecision;text-rendering:geometricPrecision" /><path
         id="_137711944"
         fill="#343e8b"
         fill-rule="nonzero"
         d="m 29.07506,211.2034 c 0,28.41049 -24.6385547,45.51759 -59.00753,45.51759 -34.369133,0 -59.008162,-17.10713 -59.008162,-45.51759 0,-28.42565 24.639029,-45.52485 59.008162,-45.52485 34.3691332,0 59.00753,17.0993 59.00753,45.52485 z m -35.4767144,0 c 0,-17.10848 -8.8535456,-27.66907 -23.5310056,-27.66907 -14.682986,0 -23.525952,10.56056 -23.525952,27.66907 0,17.10299 8.842966,27.65805 23.525952,27.65805 14.677492,0 23.5310056,-10.55506 23.5310056,-27.65805 z"
         style="clip-rule:evenodd;fill:#253e91;fill-opacity:1;stroke-width:3.1582;image-rendering:optimizeQuality;shape-rendering:geometricPrecision;text-rendering:geometricPrecision" /></g></g></svg>
