<svg
   xmlns="http://www.w3.org/2000/svg"
   id="svg252"
   version="1.1"
   viewBox="0 0 512 512"
   width="512"
   height="512">
  <title
     id="title134">Nikon</title>
  <defs
     id="defs226">
    <linearGradient
       id="gradient01"
       gradientUnits="userSpaceOnUse"
       x1="481.7688"
       y1="-363.7171"
       x2="488.8338"
       y2="-365.80579"
       gradientTransform="matrix(99.017216,0,0,99.017216,-48000.84,36579.43)">
      <stop
         offset="0"
         stop-color="#FFE419"
         id="stop136" />
      <stop
         offset="0.34"
         stop-color="#FFFFFF"
         id="stop138" />
      <stop
         offset="0.66"
         stop-color="#FFFFFF"
         id="stop140" />
      <stop
         offset="1"
         stop-color="#FFE419"
         id="stop142" />
    </linearGradient>
    <linearGradient
       id="gradient02"
       gradientUnits="userSpaceOnUse"
       x1="482.3754"
       y1="-364.36469"
       x2="489.1586"
       y2="-366.57001"
       gradientTransform="matrix(99.017216,0,0,99.017216,-48000.84,36579.43)">
      <stop
         offset="0"
         stop-color="#FFE419"
         id="stop145" />
      <stop
         offset="0.355"
         stop-color="#FFFFFF"
         id="stop147" />
      <stop
         offset="0.645"
         stop-color="#FFFFFF"
         id="stop149" />
      <stop
         offset="1"
         stop-color="#FFE419"
         id="stop151" />
    </linearGradient>
    <linearGradient
       id="gradient03"
       gradientUnits="userSpaceOnUse"
       x1="482.9458"
       y1="-364.9744"
       x2="489.46939"
       y2="-367.2999"
       gradientTransform="matrix(99.017216,0,0,99.017216,-48000.84,36579.43)">
      <stop
         offset="0"
         stop-color="#FFE419"
         id="stop154" />
      <stop
         offset="0.37"
         stop-color="#FFFFFF"
         id="stop156" />
      <stop
         offset="0.63"
         stop-color="#FFFFFF"
         id="stop158" />
      <stop
         offset="1"
         stop-color="#FFE419"
         id="stop160" />
    </linearGradient>
    <linearGradient
       id="gradient04"
       gradientUnits="userSpaceOnUse"
       x1="483.48621"
       y1="-365.55179"
       x2="489.76541"
       y2="-368"
       gradientTransform="matrix(99.017216,0,0,99.017216,-48000.84,36579.43)">
      <stop
         offset="0"
         stop-color="#FFE419"
         id="stop163" />
      <stop
         offset="0.385"
         stop-color="#FFFFFF"
         id="stop165" />
      <stop
         offset="0.615"
         stop-color="#FFFFFF"
         id="stop167" />
      <stop
         offset="1"
         stop-color="#FFE419"
         id="stop169" />
    </linearGradient>
    <linearGradient
       id="gradient05"
       gradientUnits="userSpaceOnUse"
       x1="484.00449"
       y1="-366.10291"
       x2="490.05341"
       y2="-368.6767"
       gradientTransform="matrix(99.017216,0,0,99.017216,-48000.84,36579.43)">
      <stop
         offset="0"
         stop-color="#FFE419"
         id="stop172" />
      <stop
         offset="0.4"
         stop-color="#FFFFFF"
         id="stop174" />
      <stop
         offset="0.6"
         stop-color="#FFFFFF"
         id="stop176" />
      <stop
         offset="1"
         stop-color="#FFE419"
         id="stop178" />
    </linearGradient>
    <linearGradient
       id="gradient06"
       gradientUnits="userSpaceOnUse"
       x1="484.50031"
       y1="-366.62949"
       x2="490.33331"
       y2="-369.3334"
       gradientTransform="matrix(99.017216,0,0,99.017216,-48000.84,36579.43)">
      <stop
         offset="0"
         stop-color="#FFE626"
         id="stop181" />
      <stop
         offset="0.415"
         stop-color="#FFFFFF"
         id="stop183" />
      <stop
         offset="0.585"
         stop-color="#FFFFFF"
         id="stop185" />
      <stop
         offset="1"
         stop-color="#FFE419"
         id="stop187" />
    </linearGradient>
    <linearGradient
       id="gradient07"
       gradientUnits="userSpaceOnUse"
       x1="484.97379"
       y1="-367.13391"
       x2="490.60529"
       y2="-369.9736"
       gradientTransform="matrix(99.017216,0,0,99.017216,-48000.84,36579.43)">
      <stop
         offset="0"
         stop-color="#FFE733"
         id="stop190" />
      <stop
         offset="0.43"
         stop-color="#FFFFFF"
         id="stop192" />
      <stop
         offset="0.57"
         stop-color="#FFFFFF"
         id="stop194" />
      <stop
         offset="1"
         stop-color="#FFE419"
         id="stop196" />
    </linearGradient>
    <linearGradient
       id="gradient08"
       gradientUnits="userSpaceOnUse"
       x1="485.4353"
       y1="-367.6225"
       x2="490.87299"
       y2="-370.60199"
       gradientTransform="matrix(99.017216,0,0,99.017216,-48000.84,36579.43)">
      <stop
         offset="0"
         stop-color="#FFE940"
         id="stop199" />
      <stop
         offset="0.445"
         stop-color="#FFFFFF"
         id="stop201" />
      <stop
         offset="0.555"
         stop-color="#FFFFFF"
         id="stop203" />
      <stop
         offset="1"
         stop-color="#FFE419"
         id="stop205" />
    </linearGradient>
    <linearGradient
       id="gradient09"
       gradientUnits="userSpaceOnUse"
       x1="485.8909"
       y1="-368.1044"
       x2="491.13031"
       y2="-371.22159"
       gradientTransform="matrix(99.017216,0,0,99.017216,-48000.84,36579.43)">
      <stop
         offset="0"
         stop-color="#FFEA4C"
         id="stop208" />
      <stop
         offset="0.46"
         stop-color="#FFFFFF"
         id="stop210" />
      <stop
         offset="0.54"
         stop-color="#FFFFFF"
         id="stop212" />
      <stop
         offset="1"
         stop-color="#FFE419"
         id="stop214" />
    </linearGradient>
    <linearGradient
       id="gradient10"
       gradientUnits="userSpaceOnUse"
       x1="486.3512"
       y1="-368.58911"
       x2="491.39691"
       y2="-371.84698"
       gradientTransform="matrix(99.017216,0,0,99.017216,-48000.84,36579.43)">
      <stop
         offset="0"
         stop-color="#FFEC59"
         id="stop217" />
      <stop
         offset="0.475"
         stop-color="#FFFFFF"
         id="stop219" />
      <stop
         offset="0.525"
         stop-color="#FFFFFF"
         id="stop221" />
      <stop
         offset="1"
         stop-color="#FFE419"
         id="stop223" />
    </linearGradient>
  </defs>
  <rect
     fill="#ffe100"
     width="512"
     height="512"
     id="rect228"
     x="0"
     y="0" />
  <path
     fill="url(#gradient01)"
     d="M 387.9104,362.54848 C 274.07232,382.63936 160.08576,409.35424 46.44096,442.94656 30.89664,447.54304 15.41376,452.25344 0,457.07264 V 497.2032 C 19.21152,491.92064 38.42304,486.44096 57.62304,480.768 171.26016,447.16416 281.45024,407.59936 387.9104,362.54848 Z"
     id="path230" />
  <path
     fill="url(#gradient02)"
     d="M 420.2304,287.24608 C 310.96704,310.48832 201.62816,339.71072 92.66432,375.13856 61.4976,385.26976 30.6048,395.83104 0,406.81216 v 33.78944 c 34.56256,-9.9776 69.10336,-20.57216 103.60832,-31.79008 108.96,-35.42784 214.5856,-76.10496 316.62208,-121.56544 z"
     id="path232" />
  <path
     fill="url(#gradient03)"
     d="M 451.2064,215.35104 C 346.09792,241.312 240.9984,272.85376 136.33536,310.16704 90.24128,326.59968 44.78848,343.95008 0,362.18752 V 389.76 C 49.18144,374.79168 98.31552,358.5792 147.3536,341.1008 252.01664,303.78368 353.37344,261.73056 451.2064,215.35104 Z"
     id="path234" />
  <path
     fill="url(#gradient04)"
     d="M 480.768,146.39744 C 379.60064,175.09376 278.5024,208.97792 177.89568,248.19968 117.4016,271.78496 58.09024,296.91392 0,323.4944 v 20.2368 C 63.0912,323.36768 126.0992,300.96 188.928,276.46976 289.5232,237.24416 386.88896,193.75104 480.768,146.39744 Z"
     id="path236" />
  <path
     fill="url(#gradient05)"
     d="M 509.26336,79.87712 C 411.80928,111.328 314.4832,147.58656 217.68576,188.7744 143.20256,220.46976 70.6112,254.40512 0,290.42432 v 11.94752 C 76.3968,276.06912 152.66944,246.79552 228.62464,214.48064 325.4144,173.29152 419.0336,128.29184 509.26336,79.87712 Z"
     id="path238" />
  <path
     fill="url(#gradient06)"
     d="M 512,29.52832 V 24.5632 C 426.46528,56.4736 341.0944,92.0832 256.17152,131.44448 167.94368,172.34688 82.496,216.23808 0,262.82496 V 265.664 C 89.24544,232.70656 178.33344,195.73504 266.9376,154.66752 351.21024,115.59936 432.93696,73.7984 512,29.52832 Z"
     id="path240" />
  <path
     fill="url(#gradient07)"
     d="M 32.66176,220.43392 C 123.33696,183.328 213.83424,142.1248 303.80544,96.76416 365.14304,65.83168 425.08928,33.53344 483.5776,0 H 453.00992 C 399.64032,23.87712 346.37696,49.18784 293.30304,75.94752 203.34592,121.30944 116.40192,169.58848 32.66176,220.43392 Z"
     id="path242" />
  <path
     fill="url(#gradient08)"
     d="M 77.92512,171.72736 C 165.4016,131.71328 252.72064,87.94624 339.52896,40.38912 363.74912,27.1168 387.73888,13.6512 411.5072,0 H 369.96608 C 356.43904,7.2128 342.9184,14.52288 329.41312,21.9264 242.60736,69.48608 158.72128,119.52896 77.92512,171.72736 Z"
     id="path244" />
  <path
     fill="url(#gradient09)"
     d="M 348.35328,0 H 312.66304 C 247.61344,39.92576 184.3136,81.09184 122.86336,123.34464 198.20928,84.96896 273.46048,43.85792 348.35328,0 Z"
     id="path246" />
  <path
     fill="url(#gradient10)"
     d="M 295.73248,0 H 273.23136 C 237.54496,24.66944 202.4384,49.65504 167.9232,74.92992 210.56512,50.80832 253.18784,25.83296 295.73248,0 Z"
     id="path248" />
  <path
     fill="#150301"
     d="m 185.57568,493.31072 27.64544,-124.5632 34.06976,0.004 -14.85184,66.25152 27.51872,-33.21984 h 38.09408 l -34.18368,41.53088 14.0928,49.99808 H 243.968 L 229.91872,445.94048 218.79168,493.312 h -33.216 z m -123.01952,-62.6112 24.00512,62.60992 h 32.65152 l 28.13824,-124.5632 -33.62944,0.004 L 99.48672,432.11136 75.9296,368.7104 H 41.83424 L 14.0352,493.31072 h 34.28864 c 3.89248,-19.96416 9.10208,-41.0496 14.23232,-62.6112 z m 106.70464,62.6112 20.3968,-91.47776 h -33.46432 l -20.39296,91.47776 z M 157.90848,381.792 c 0,2.87104 0.67456,13.02016 18.9888,13.02016 15.2128,0 21.07904,-9.74848 21.07904,-17.02656 0,-4.89984 -4.00512,-13.40288 -18.99648,-13.40288 -13.80864,10e-4 -21.07136,9.23392 -21.07136,17.40928 z m 321.85984,18.80704 c -14.30784,-4.26112 -32.0384,2.80832 -40.78976,14.92096 0.84992,-3.75424 1.75872,-8.12032 2.78656,-13.14816 H 407.808 l -19.872,90.93888 h 33.79328 l 11.27296,-51.57888 c 2.07232,-9.49248 9.70496,-13.5488 16.46464,-11.8016 2.91456,0.78848 6.92352,2.99136 5.59616,10.90048 l -11.47008,52.47872 h 33.3952 l 15.30752,-70.03776 c 3.24352,-15.43552 -9.4336,-21.74592 -12.52736,-22.67264 z m -113.62944,84.46208 c 14.67008,-11.99616 21.92512,-32.27904 21.69216,-51.36256 -0.24832,-18.3424 -15.7824,-35.74144 -42.80704,-35.74144 -51.51616,0 -59.00928,40.15488 -60.49792,47.48416 -3.77216,18.53952 0.42368,42.60352 24.62208,48.98048 15.96672,4.21504 40.9344,3.75808 56.99072,-9.36064 z m -37.792,-53.01888 c 2.42176,-6.67264 9.01504,-8.14976 11.99488,-8.1792 7.38432,-0.0627 9.40544,4.31616 8.76288,8.4416 -1.77664,11.4368 -5.73824,25.94944 -7.20128,30.57536 -0.0179,0.0614 -0.0294,0.12032 -0.0474,0.17152 -1.60896,5.05216 -6.36928,7.9936 -11.97312,7.9936 -5.67296,0 -9.10208,-3.56736 -8.61312,-8.11392 0.832,-7.67488 5.69088,-27.07584 7.07712,-30.88896 z"
     id="path250" />
</svg>