<?xml version="1.0" encoding="UTF-8" standalone="no"?>
<!-- Created with Inkscape (http://www.inkscape.org/) -->

<svg
   xmlns:dc="http://purl.org/dc/elements/1.1/"
   xmlns:cc="http://creativecommons.org/ns#"
   xmlns:rdf="http://www.w3.org/1999/02/22-rdf-syntax-ns#"
   xmlns:svg="http://www.w3.org/2000/svg"
   xmlns="http://www.w3.org/2000/svg"
   xmlns:sodipodi="http://sodipodi.sourceforge.net/DTD/sodipodi-0.dtd"
   xmlns:inkscape="http://www.inkscape.org/namespaces/inkscape"
   width="1008.084"
   height="154.061"
   viewBox="0 0 1008.084 154.06101"
   id="svg4892"
   version="1.1"
   inkscape:version="0.91 r13725"
   sodipodi:docname="Panasonic.svg">
  <defs
     id="defs4894" />
  <sodipodi:namedview
     id="base"
     pagecolor="#ffffff"
     bordercolor="#666666"
     borderopacity="1.0"
     inkscape:pageopacity="0.0"
     inkscape:pageshadow="2"
     inkscape:zoom="0.70710678"
     inkscape:cx="555.34608"
     inkscape:cy="278.29448"
     inkscape:document-units="px"
     inkscape:current-layer="layer1"
     showgrid="false"
     units="px"
     inkscape:window-width="1366"
     inkscape:window-height="705"
     inkscape:window-x="-8"
     inkscape:window-y="-8"
     inkscape:window-maximized="1" />
  <metadata
     id="metadata4897">
    <rdf:RDF>
      <cc:Work
         rdf:about="">
        <dc:format>image/svg+xml</dc:format>
        <dc:type
           rdf:resource="http://purl.org/dc/dcmitype/StillImage" />
        <dc:title></dc:title>
      </cc:Work>
    </rdf:RDF>
  </metadata>
  <g
     inkscape:label="Layer 1"
     inkscape:groupmode="layer"
     id="layer1"
     transform="translate(0,-898.30116)">
    <g
       id="g5590"
       style="fill:#000000">
      <path
         id="path3570"
         d="m 73.230553,1002.408 -27.57795,0 0,-35.2604 17.92137,0 c 3.4028,0 6.28444,-0.08 9.68723,-0.2697 4.71486,-0.2575 8.63267,-2.3666 11.44074,-6.1618 1.48988,-2.0172 2.32984,-4.0527 2.68545,-6.542 0.2943,-2.0968 0.33721,-3.8871 0.12876,-5.984 -0.7664,-7.8479 -7.26543,-13.7338 -15.14396,-13.7338 l -26.71959,0 0,114.2909 -45.652603,0 0,-150.4463 74.622323,0 c 2.96748,0 5.47512,0.055 8.43647,0.2207 19.797507,1.0607 36.106387,12.0539 44.493817,30.0181 4.36537,9.3501 5.84912,18.3383 4.72711,28.6019 -2.36662,21.6062 -17.47993,38.4117 -38.712117,43.0653 -7.03857,1.545 -13.13294,2.2011 -20.33705,2.2011"
         inkscape:connector-curvature="0"
         style="fill:#000000;fill-opacity:1" />
      <path
         id="path3590"
         d="m 242.74218,1040.3273 c -0.60085,-8.8534 -0.93806,-16.3518 -1.11586,-25.2359 -0.23912,-11.6737 -0.37401,-21.52026 -0.45371,-33.18786 -0.0429,-6.2967 -0.73574,-11.6124 -2.31758,-17.7068 -2.0662,-7.9889 -6.73814,-14.0588 -13.94838,-18.0931 -4.35313,-2.434 -8.34451,-3.93 -13.21265,-4.9846 -15.49957,-3.3169 -29.17818,-3.5928 -44.80037,-0.8829 -4.37765,0.7603 -8.01956,1.8148 -12.13356,3.5193 -9.51556,3.9362 -16.06977,11.1097 -19.12309,20.9379 -1.16491,3.7584 -1.48373,7.1673 -1.03002,11.0851 0.0797,0.7174 0.25751,1.3244 0.58245,1.9804 l 36.16158,0.8829 c -0.0858,-2.3053 0.20846,-4.255 0.9871,-6.4193 1.18332,-3.2986 3.51316,-5.6407 6.81172,-6.8424 4.85588,-1.7842 9.5217,-1.8516 14.43275,-0.2452 3.23725,1.0606 5.53643,3.3905 6.54808,6.6339 0.61924,2.0294 0.30655,4.0281 -0.91968,5.7633 -1.07295,1.5327 -2.39115,2.5628 -4.13239,3.2311 -1.07909,0.4108 -1.99877,0.7112 -3.1085,1.0055 -5.02142,1.355 -9.31937,2.2869 -14.44501,3.1391 -4.05883,0.6683 -7.48615,1.2998 -11.52045,2.1214 -5.46899,1.0852 -10.03671,2.2869 -15.35242,4.0037 -4.84361,1.5695 -8.66946,3.8013 -12.42785,7.2531 -4.88041,4.46346 -7.66395,9.75466 -8.60202,16.32116 -0.61925,4.3776 -0.4721,8.1912 0.50276,12.5014 2.5199,11.2078 10.31261,19.4971 21.34256,22.7098 12.25005,3.55 23.72145,2.9675 35.54232,-1.8025 5.74489,-2.3115 10.1348,-5.5181 14.0894,-10.2881 l -2.55056,-18.4732 c -1.82096,2.8203 -4.08948,4.7455 -7.15506,6.0944 -2.86325,1.2691 -5.46287,1.9374 -8.57136,2.2562 -2.61188,0.2576 -4.85588,0.067 -7.38192,-0.6376 -2.0478,-0.5641 -3.64803,-1.5205 -5.09499,-3.0656 -1.23236,-1.3243 -1.96196,-2.7467 -2.33597,-4.5125 -0.56406,-2.71 0.31883,-5.3157 2.43407,-7.1122 1.41017,-1.2078 2.79581,-2.0171 4.53706,-2.6547 4.19984,-1.5451 7.7927,-2.7039 12.09064,-3.924 5.19922,-1.4653 9.49716,-3.0533 14.40822,-5.3096 0.47824,3.9301 0.45371,7.2961 -0.092,11.2078 -0.39853,2.8694 -1.27529,5.2299 -2.83873,7.6578 l 2.55056,18.4732 c 0.78479,2.6241 1.51439,4.8191 2.41568,7.388 0.50275,1.4408 1.16492,2.5567 2.17042,3.6787 l 39.83414,0 c -1.69833,-2.667 -2.5567,-5.3034 -2.77742,-8.4671"
         inkscape:connector-curvature="0"
         style="fill:#000000;fill-opacity:1" />
      <path
         id="path3554"
         d="m 290.37172,952.6333 c 5.28506,-4.6229 10.32487,-7.8847 16.68901,-10.83379 10.38618,-4.79456 20.77237,-5.57322 31.74714,-2.36663 11.78408,3.45182 20.26961,11.73502 23.98509,23.43942 1.78416,5.6223 2.55669,10.613 2.55669,16.5112 l 0,69.3557 -42.67898,0 0,-62.3723 c 0,-2.0846 -0.26364,-3.8504 -0.87063,-5.8491 -1.10361,-3.5806 -3.47024,-6.217 -6.93434,-7.6762 -7.55972,-3.2128 -16.16173,-0.3679 -20.3064,6.7197 -1.74124,2.9552 -2.53216,5.8675 -2.53216,9.301 l 0,59.8769 -41.33014,0 0,-107.46697 38.77345,0 0.90127,11.36107"
         inkscape:connector-curvature="0"
         style="fill:#000000;fill-opacity:1" />
      <path
         id="path3586"
         d="m 484.0029,1040.3273 c -0.60086,-8.8534 -0.93807,-16.3518 -1.11587,-25.2359 -0.23299,-11.6737 -0.37401,-21.52028 -0.45371,-33.18787 -0.049,-6.2967 -0.74186,-11.61242 -2.31758,-17.70679 -2.06619,-7.98889 -6.74427,-14.05874 -13.94837,-18.09304 -4.35313,-2.43407 -8.3445,-3.93007 -13.21265,-4.98463 -15.49956,-3.31696 -29.17817,-3.59286 -44.79424,-0.88289 -4.3899,0.76026 -8.01955,1.81482 -12.13969,3.51928 -9.51555,3.93621 -16.06976,11.10966 -19.12308,20.93791 -1.17105,3.7584 -1.48374,7.16732 -1.03616,11.08513 0.0858,0.71735 0.26364,1.32433 0.58859,1.98037 l 36.16157,0.88288 c -0.092,-2.30531 0.20846,-4.25502 0.98711,-6.41932 1.18331,-3.29856 3.51316,-5.64067 6.81172,-6.84237 4.84974,-1.78417 9.52169,-1.85161 14.43887,-0.24525 3.23112,1.06069 5.52418,3.39053 6.52968,6.63391 0.63151,2.02942 0.31882,4.02818 -0.9074,5.76329 -1.06682,1.53279 -2.38503,2.56283 -4.1324,3.23112 -1.07909,0.41079 -1.99876,0.71122 -3.10237,1.00551 -5.02755,1.35499 -9.31936,2.28692 -14.45114,3.13916 -4.06496,0.66829 -7.48615,1.2998 -11.51431,2.12138 -5.47513,1.08521 -10.04897,2.28692 -15.35242,4.00364 -4.85588,1.56958 -8.68172,3.80132 -12.43399,7.25316 -4.88041,4.46342 -7.67008,9.75462 -8.60202,16.32112 -0.61311,4.3776 -0.47209,8.1912 0.49663,12.5014 2.53217,11.2078 10.3126,19.4971 21.35482,22.7098 12.23779,3.55 23.72145,2.9675 35.53619,-1.8025 5.75103,-2.3115 10.12867,-5.5181 14.08327,-10.2881 l -2.55056,-18.4732 c -1.82095,2.8203 -4.08335,4.7455 -7.1428,6.0944 -2.86938,1.2691 -5.46286,1.9374 -8.58362,2.2562 -2.59961,0.2576 -4.85588,0.067 -7.37578,-0.6376 -2.04781,-0.5641 -3.64804,-1.5205 -5.10113,-3.0656 -1.22622,-1.3243 -1.95583,-2.7467 -2.32984,-4.5125 -0.57019,-2.71 0.31883,-5.3157 2.43407,-7.1122 1.4163,-1.2078 2.80194,-2.0171 4.53706,-2.6547 4.19985,-1.5451 7.78658,-2.7039 12.08451,-3.924 5.19923,-1.4653 9.5033,-3.0533 14.40822,-5.3096 0.48437,3.9301 0.45984,7.2961 -0.0858,11.2078 -0.39853,2.8694 -1.26916,5.2299 -2.84486,7.6578 l 2.55056,18.4732 c 0.79092,2.6241 1.52053,4.8191 2.41567,7.388 0.50889,1.4408 1.17106,2.5567 2.17657,3.6787 l 39.83412,0 c -1.69832,-2.667 -2.56282,-5.3034 -2.77741,-8.4671"
         inkscape:connector-curvature="0"
         style="fill:#000000;fill-opacity:1" />
      <path
         id="path3566"
         d="m 543.65886,1009.2427 c 3.07784,0.5212 5.65292,1.1649 8.60815,2.1521 2.47086,0.8093 4.16918,2.7222 4.70872,5.2544 0.5886,2.7651 -0.19006,5.3892 -2.17655,7.3819 -2.01716,2.0417 -4.31634,3.2188 -7.14893,3.6603 -3.78906,0.607 -7.14894,0.2943 -10.76019,-1.0178 -1.74737,-0.6254 -3.13302,-1.4163 -4.56771,-2.5996 -1.84548,-1.5573 -3.03493,-3.3415 -3.75226,-5.6468 -0.60086,-1.9558 -0.83998,-3.6848 -0.80319,-5.7326 l -39.3559,0 0,2.293 c 0,3.7032 0.57632,6.8424 1.87613,10.3065 1.97423,5.2115 4.67808,9.2397 8.76142,13.041 5.32798,4.9846 10.88894,8.0931 17.89686,10.098 14.54924,4.1446 27.65152,4.9662 42.60541,2.6732 7.01404,-1.073 12.80186,-2.9614 19.11082,-6.2293 2.77742,-1.4408 5.00302,-2.9307 7.40031,-4.9417 10.63142,-8.927 14.57376,-22.5504 10.32486,-35.763 -1.60635,-4.97859 -4.14465,-8.81669 -8.09925,-12.25009 -5.41995,-4.6965 -10.90733,-7.6885 -17.79875,-9.6995 -1.50826,-0.4353 -2.79581,-0.8032 -4.31634,-1.2201 -8.43034,-2.3421 -15.67124,-3.8872 -24.32843,-5.1747 -2.31758,-0.3433 -4.26729,-0.7173 -6.55421,-1.2508 -1.05456,-0.2513 -1.93132,-0.5456 -2.9123,-0.9932 -2.42181,-1.0914 -3.49475,-3.9423 -2.40342,-6.358 0.0613,-0.1288 0.1165,-0.2453 0.18394,-0.3679 1.29981,-2.3237 3.22499,-3.8381 5.76329,-4.58 4.49414,-1.2998 8.63267,-1.1894 13.04098,0.3127 4.23049,1.4409 6.88529,5.3219 6.70135,9.7915 l 37.92121,0 c -0.0368,-4.6597 -0.748,-8.5959 -2.31758,-12.9735 -1.60637,-4.439 -4.04656,-7.8173 -7.75592,-10.7418 -3.22498,-2.5629 -6.28443,-4.3041 -10.12867,-5.794 -3.74001,-1.4531 -7.03857,-2.3605 -10.99316,-3.0533 -9.39907,-1.6186 -17.48606,-2.0907 -27.00162,-1.5267 -5.43834,0.3127 -10.02444,0.9872 -15.34629,2.2318 -7.16119,1.6861 -12.93061,4.4512 -18.71842,8.9883 -4.91719,3.8565 -8.13605,8.3629 -10.19612,14.261 -0.93807,2.6732 -1.38564,5.046 -1.50827,7.8602 -0.21459,4.7148 0.46597,8.7308 2.21336,13.1145 3.12689,7.8479 8.68171,13.4089 16.54186,16.54189 3.97911,1.588 7.46774,2.6303 11.66759,3.4886 8.27707,1.7106 15.28498,3.0411 23.61722,4.4635"
         inkscape:connector-curvature="0"
         style="fill:#000000;fill-opacity:1" />
      <path
         id="path3574"
         d="m 672.5605,939.22638 c -4.2489,-0.67443 -7.87854,-0.95033 -12.17649,-0.95033 -4.30406,0 -7.92758,0.2759 -12.1826,0.95033 -12.33589,1.93131 -22.32968,6.89142 -31.33635,15.53635 -9.63818,9.26418 -14.91711,20.22669 -16.12495,33.53744 -0.73574,8.17283 -0.10423,15.21753 2.09687,23.12063 3.37213,12.1274 9.70562,21.4958 19.6994,29.1475 6.57874,5.0582 13.12068,8.087 21.22607,9.8528 5.75716,1.263 10.72952,1.7841 16.62156,1.7841 5.88592,0 10.86442,-0.5211 16.62771,-1.7841 8.09926,-1.7658 14.6412,-4.7946 21.21993,-9.8528 l -23.08993,-25.1623 c -3.67257,8.1545 -13.23717,11.7902 -21.39775,8.1177 -3.75839,-1.6922 -6.42545,-4.3532 -8.12378,-8.1177 -1.56345,-3.4764 -2.47698,-6.591 -3.04105,-10.3678 -1.1404,-7.54743 -1.01165,-14.10164 0.46597,-21.60004 0.75412,-3.89329 2.05393,-7.06923 4.22436,-10.38618 4.74552,-7.2409 14.45727,-9.26418 21.71043,-4.5248 1.89453,1.24463 3.28017,2.63027 4.51254,4.5248 2.17656,3.31695 3.47637,6.49289 4.23049,10.38618 1.45922,7.4984 1.60637,14.05261 0.46597,21.60004 -0.5702,3.7768 -1.48373,6.8914 -3.04718,10.3678 l 23.08993,25.1623 c 9.99993,-7.6517 16.33342,-17.0201 19.69942,-29.1475 2.2011,-7.9031 2.82648,-14.9478 2.09687,-23.12063 -1.20785,-13.31075 -6.47451,-24.27326 -16.11882,-33.53744 -9.01282,-8.65719 -19.00047,-13.60504 -31.34862,-15.53635"
         inkscape:connector-curvature="0"
         style="fill:#000000;fill-opacity:1" />
      <path
         id="path3550"
         d="m 765.55772,952.6333 c 5.28506,-4.6229 10.32487,-7.8847 16.70127,-10.8338 10.38005,-4.7945 20.76011,-5.5732 31.74101,-2.3666 11.77795,3.4518 20.26348,11.735 23.97896,23.4394 1.78416,5.6223 2.55669,10.613 2.55669,16.5112 l 0,69.3557 -42.67898,0 0,-62.3723 c 0,-2.0846 -0.25138,-3.8504 -0.87676,-5.8491 -1.09135,-3.5806 -3.45798,-6.217 -6.91595,-7.6762 -7.56585,-3.2128 -16.16786,-0.3679 -20.31866,6.7197 -1.73512,2.9552 -2.52603,5.8675 -2.52603,9.301 l 0,59.8769 -41.33627,0 0,-107.467 38.77957,0 0.89515,11.3611"
         inkscape:connector-curvature="0"
         style="fill:#000000;fill-opacity:1" />
      <path
         style="fill:#000000;fill-opacity:1"
         inkscape:connector-curvature="0"
         d="m 848.9,1048.7542 40.1847,0 0,-107.4615 -40.1847,0 0,107.4615 z"
         id="path3546" />
      <path
         style="fill:#000000;fill-opacity:1"
         inkscape:connector-curvature="0"
         d="m 848.9,926.7012 40.1847,0 0,-28.3876 -40.1847,0 0,28.3876 z"
         id="path3544" />
      <path
         style="fill:#000000;fill-opacity:1"
         inkscape:connector-curvature="0"
         d="m 996.99693,1034.8097 c -8.11766,8.5346 -17.32053,13.6235 -28.8655,15.9472 -7.7927,1.5757 -14.61668,1.9068 -22.53814,1.0852 -10.49654,-1.0791 -19.15986,-4.4512 -27.6086,-10.7725 -6.90981,-5.1501 -11.85766,-10.7233 -16.18012,-18.1911 -3.33535,-5.7817 -5.27893,-11.1894 -6.35802,-17.7742 -1.51439,-9.13548 -1.11587,-17.17343 1.28755,-26.10652 5.49352,-20.31866 20.77849,-34.72075 41.37918,-39.00643 11.76569,-2.44633 22.22545,-2.19495 33.85626,0.80931 8.28319,2.13978 14.86192,5.7449 21.12797,11.57563 3.9546,3.66643 6.76267,7.35126 9.25189,12.1213 2.9491,5.64066 4.1386,11.12192 3.8013,17.4738 l -36.74399,0 c -0.79705,-4.92332 -3.15754,-8.84726 -7.1244,-11.86379 -5.13791,-3.91781 -11.7657,-4.2305 -17.25921,-0.83384 -3.75227,2.33597 -6.217,5.51191 -7.54746,9.72402 -3.16368,10.0367 -3.30469,19.37446 -0.48436,29.50922 1.20171,4.2612 3.21886,7.6027 6.44385,10.6437 3.67256,3.5071 8.25254,4.9479 13.28009,4.206 3.11462,-0.4537 5.64679,-1.8148 7.74365,-4.1753 2.20108,-2.4341 3.45797,-5.046 4.0343,-8.2771 0.40466,-2.2746 0.63151,-4.1998 0.75413,-6.5051 l 38.7367,0 c 0.7725,11.6798 -2.9307,21.9373 -10.98707,30.4105"
         id="path3542" />
    </g>
  </g>
</svg>
