<?xml version="1.0" encoding="UTF-8" standalone="no"?>
<svg
   xmlns:dc="http://purl.org/dc/elements/1.1/"
   xmlns:cc="http://creativecommons.org/ns#"
   xmlns:rdf="http://www.w3.org/1999/02/22-rdf-syntax-ns#"
   xmlns:svg="http://www.w3.org/2000/svg"
   xmlns="http://www.w3.org/2000/svg"
   xmlns:sodipodi="http://sodipodi.sourceforge.net/DTD/sodipodi-0.dtd"
   xmlns:inkscape="http://www.inkscape.org/namespaces/inkscape"
   version="1.1"
   id="svg4256"
   width="1000.003"
   height="176.061"
   viewBox="0 0 1000.003 176.06122"
   inkscape:version="0.91 r13725"
   sodipodi:docname="Sony_logo.svg">
  <sodipodi:namedview
     pagecolor="#ffffff"
     bordercolor="#666666"
     borderopacity="1"
     objecttolerance="10"
     gridtolerance="10"
     guidetolerance="10"
     inkscape:pageopacity="0"
     inkscape:pageshadow="2"
     inkscape:window-width="1366"
     inkscape:window-height="705"
     id="namedview6"
     showgrid="false"
     inkscape:zoom="0.5"
     inkscape:cx="699.11718"
     inkscape:cy="-64.279281"
     inkscape:window-x="-8"
     inkscape:window-y="-8"
     inkscape:window-maximized="1"
     inkscape:current-layer="svg4256"
     showguides="false" />
  <metadata
     id="metadata4264">
    <rdf:RDF>
      <cc:Work
         rdf:about="">
        <dc:format>image/svg+xml</dc:format>
        <dc:type
           rdf:resource="http://purl.org/dc/dcmitype/StillImage" />
        <dc:title></dc:title>
      </cc:Work>
    </rdf:RDF>
  </metadata>
  <defs
     id="defs4262" />
  <path
     id="path4258"
     d="m 356.25827,176.0592 c -36.22503,0 -69.85168,-10.8635 -92.29758,-31.01017 -16.9579,-15.22095 -25.10653,-35.89574 -25.10653,-57.174951 0,-21.020171 8.50004,-41.837532 25.10453,-56.97816 20.84548,-18.998076 57.64884,-30.89571773344 92.29958,-30.89571773344 38.34555,0 69.03645,9.65867703344 92.49842,30.94792573344 16.69283,15.148662 24.76315,35.873652 24.76315,56.927961 0,20.407722 -8.56428,42.140742 -24.76315,57.172942 -21.84749,20.27719 -56.18097,31.01017 -92.49842,31.01017 l 0,-23.22098 c 19.227,0 37.06242,-6.63858 49.51832,-19.03221 12.36953,-12.30929 18.13259,-27.43988 18.13259,-45.931931 0,-17.714936 -6.21689,-34.277256 -18.13259,-46.024297 -12.28922,-12.104471 -30.55034,-18.915745 -49.51832,-18.915745 -19.02616,0 -37.29933,6.740994 -49.59859,18.915745 -11.85145,11.743024 -18.08443,28.353537 -18.08443,46.024297 0,17.616541 6.30527,34.217021 18.08443,45.933941 12.3093,12.24503 30.51819,19.03221 49.59859,19.03221 l 0,23.22098 z M 91.490072,0.08453927 c -19.377595,0 -41.391745,3.62451303 -60.096646,11.97796173 C 14.130298,19.765348 -2.85826e-4,32.223232 -2.85826e-4,52.875934 -0.00831798,71.476417 11.813018,82.370039 11.491733,82.068833 c 5.028134,4.628535 13.122545,12.510096 34.285289,17.13863 9.457872,2.068287 29.678844,5.245007 49.815477,7.349427 19.988031,2.10844 39.658811,4.11247 47.670891,6.14059 6.36547,1.62049 17.05831,3.82733 17.05831,15.82336 0,11.94785 -11.26511,15.59445 -13.22296,16.38562 -1.95584,0.77309 -15.46994,6.97392 -39.76322,6.97392 -17.935816,0 -39.49816,-5.3936 -47.357633,-8.20485 -9.060281,-3.22492 -18.564338,-7.49 -27.42984,-18.31936 -2.204826,-2.68475 -5.682754,-10.06832 -5.682754,-17.37959 l -21.9860394,0 0,61.60669 24.4378574,0 0,-8.32333 c 0,-0.94779 1.184743,-4.8454 5.287172,-2.99198 5.10444,2.31929 20.088441,8.28518 35.755177,11.55628 12.845437,2.68675 21.128603,4.61247 37.09855,4.61247 26.05633,0 40.05441,-4.245 49.73114,-7.00807 9.11651,-2.61045 20.38163,-7.29722 29.53227,-14.59444 4.95585,-3.9458 15.82335,-14.0603 15.82335,-32.41982 0,-17.62256 -9.45787,-28.560363 -12.78519,-31.887687 -4.53215,-4.534156 -10.06831,-8.048228 -15.83742,-10.757076 -5.02613,-2.365472 -12.95789,-5.206849 -19.44787,-6.79521 C 141.87784,67.882024 113.39579,64.066746 99.775249,62.641038 85.492055,61.149062 60.714838,59.096845 50.819213,56.034582 47.819198,55.10486 41.702707,52.191192 41.702707,45.09076 c 0,-5.050223 2.797202,-9.331367 8.325336,-12.791221 8.77514,-5.498016 26.500117,-8.9157 44.976102,-8.9157 21.843465,-0.08032 40.341555,4.913674 52.108655,10.174744 4.00202,1.787156 8.68479,4.35343 12.40368,7.389589 4.1968,3.421702 10.0884,10.532175 12.21892,20.449888 l 19.73904,0 0,-53.6267407 -22.04024,0 0,6.2329587 c 0,2.012056 -2.07833,4.626527 -6.00806,2.465875 C 153.56262,11.295431 125.67496,0.13072327 91.486057,0.08453927 M 574.49218,9.8295603 682.00669,106.8581 680.90228,41.530503 C 680.79388,32.9642 679.21554,29.38788 669.95043,29.38788 l -20.21497,0 0,-19.5422547 91.92813,0 0,19.5422547 -19.71895,0 c -9.44985,0 -10.04623,3.022102 -10.16071,12.142623 l 1.66667,124.825847 -31.48206,0 -123.83587,-110.522571 0.0262,78.438091 c 0.1084,8.52614 0.50804,12.54222 9.29321,12.54222 l 22.07842,0 0,19.53423 -90.28152,0 0,-19.53222 21.1045,0 c 7.88357,0 7.57032,-7.51609 7.57032,-12.988 l 0,-91.554623 c 0,-5.909664 -0.82933,-12.87154 -13.20689,-12.87154 l -17.12455,0 0,-19.5723767 76.89993,0 z M 846.71023,146.77795 c 0.86346,0 4.69882,-0.11045 5.4418,-0.33735 2.1225,-0.66265 3.56226,-2.17672 4.22892,-3.75504 0.28113,-0.66265 0.42169,-3.59439 0.42169,-4.23094 l 0.016,-30.88367 c 0,-0.74297 -0.0542,-1.06426 -1.31526,-2.71888 -1.38555,-1.80724 -56.31551,-64.056509 -58.82959,-66.797485 -3.1225,-3.403628 -8.60442,-8.664697 -16.93379,-8.664697 l -19.1025,0 0,-19.5502857 107.80568,0 0,19.5261897 -12.99604,0 c -3.00602,0 -5.00402,2.851418 -2.43574,6.020106 0,0 36.27122,43.38774 36.61461,43.841557 0.33736,0.46185 0.62651,0.572292 1.08837,0.150604 0.4538,-0.431729 37.18088,-43.594569 37.47004,-43.935937 1.74699,-2.092377 0.56225,-6.054242 -3.20283,-6.054242 l -13.33138,0 0,-19.5482777 88.35379,0 0,19.5482777 -19.73905,0 c -7.16065,0 -10.07433,1.325307 -15.4619,7.415695 -2.46387,2.787161 -57.98018,66.154905 -59.49022,67.871785 -0.79116,0.89759 -0.7229,2.1486 -0.7229,2.89158 l 0,30.87965 c 0,0.62651 0.14053,3.56226 0.4217,4.2209 0.66866,1.58635 2.11647,3.10042 4.23696,3.75504 0.74297,0.22892 4.52612,0.34137 5.38758,0.34137 l 20.19084,0 0,19.54627 -107.24946,0 0,-19.54828 19.13663,0.0161 z"
     style="fill:#000000;fill-opacity:1"
     inkscape:connector-curvature="0" />
</svg>
